<svg width="30" height="30" viewBox="0 0 30 30" xmlns="http://www.w3.org/2000/svg"><title>●Google+ Copy 2</title><g fill-rule="nonzero" fill="#000"><path d="M14.999 18A3.005 3.005 0 0 0 18 15a2.99 2.99 0 0 0-.567-1.749A2.996 2.996 0 0 0 15 12a2.999 2.999 0 0 0-2.434 1.25A2.986 2.986 0 0 0 12 15a3.002 3.002 0 0 0 2.999 3zM22 10.99V8l-.39.001L19 8.01 19.01 11z"/><path d="M15 0C6.729 0 0 6.729 0 15c0 8.27 6.729 15 15 15 8.27 0 15-6.73 15-15 0-8.271-6.728-15-15-15zm8.53 13.25v6.984a3.3 3.3 0 0 1-3.296 3.298H9.766a3.3 3.3 0 0 1-3.297-3.298V9.767A3.3 3.3 0 0 1 9.766 6.47h10.467a3.3 3.3 0 0 1 3.298 3.297v3.483z"/><path d="M19.757 14.828c0 2.686-2.133 4.873-4.756 4.873s-4.755-2.187-4.755-4.873c0-.646.125-1.264.35-1.828H8v7.294C8 21.237 8.747 22 9.666 22h10.668c.918 0 1.666-.763 1.666-1.706V13h-2.597c.226.564.354 1.182.354 1.828z"/></g></svg>