<svg width="30" height="30" viewBox="0 0 30 30" xmlns="http://www.w3.org/2000/svg"><title>●Twitter Copy 2</title><path d="M15 0C6.729 0 0 6.729 0 15c0 8.27 6.729 15 15 15 8.27 0 15-6.73 15-15 0-8.271-6.728-15-15-15zm6.692 11.567c.006.149.01.298.01.448 0 4.563-3.472 9.822-9.824 9.822-1.95 0-3.765-.57-5.292-1.55a6.93 6.93 0 0 0 5.112-1.43 3.456 3.456 0 0 1-3.226-2.398 3.48 3.48 0 0 0 1.559-.058 3.453 3.453 0 0 1-2.77-3.385c0-.015 0-.03.002-.044.465.258.997.414 1.563.432A3.45 3.45 0 0 1 7.29 10.53c0-.634.17-1.227.467-1.737a9.803 9.803 0 0 0 7.116 3.609 3.452 3.452 0 0 1 5.883-3.15 6.891 6.891 0 0 0 2.194-.838 3.468 3.468 0 0 1-1.52 1.91 6.864 6.864 0 0 0 1.982-.543 6.945 6.945 0 0 1-1.72 1.785z" fill="#000" fill-rule="nonzero"/></svg>