<svg xmlns="http://www.w3.org/2000/svg" width="28" height="29" viewBox="0 0 28 29">
    <g fill="none" fill-rule="evenodd">
        <g fill="#FDFDFD">
            <g>
                <g>
                    <g>
                        <path d="M15.85 2c.187 0 .348.131.385.313l.636 3.064c.026.13.117.232.239.28.838.33 1.613.786 2.297 1.351.072.06.16.091.25.091.044 0 .088-.008.131-.025l2.834-1.057c.044-.017.091-.025.137-.025.137 0 .27.071.341.196l1.848 3.2c.093.162.06.366-.08.491l-2.332 2.08c-.1.087-.146.22-.125.35.063.413.101.834.101 1.264 0 .478-.043.947-.119 1.403-.023.137.026.276.134.365l2.328 1.921c.148.122.186.334.09.5l-1.848 3.2c-.07.123-.203.196-.34.196-.042 0-.083-.007-.123-.02l-2.965-.98c-.04-.013-.08-.019-.12-.019-.087 0-.172.03-.242.086-.694.553-1.479.998-2.324 1.314-.131.05-.227.16-.25.297l-.5 2.981c-.032.19-.197.33-.389.33H12.15c-.187 0-.347-.132-.385-.315l-.635-3.063c-.027-.128-.118-.233-.24-.28-.838-.33-1.613-.787-2.298-1.35-.07-.06-.159-.092-.248-.092-.044 0-.09.008-.133.024L5.378 21.13c-.046.017-.091.024-.136.024-.138 0-.27-.07-.341-.196l-1.848-3.199c-.094-.162-.06-.366.079-.49l2.333-2.08c.1-.088.144-.22.123-.35-.063-.414-.1-.835-.1-1.265 0-.478.042-.947.118-1.403.024-.138-.026-.276-.133-.365l-2.327-1.92c-.15-.123-.188-.334-.091-.5l1.847-3.2c.071-.124.204-.197.341-.197.042 0 .083.006.123.02l2.965.98c.04.013.08.02.12.02.086 0 .171-.03.242-.087.694-.554 1.478-.998 2.325-1.315.13-.048.226-.16.248-.296l.502-2.982c.03-.189.194-.328.387-.328zm-.284.742H12.45L12 5.432c-.067.395-.343.728-.722.87-.771.29-1.486.692-2.12 1.2-.201.16-.453.247-.707.247-.12 0-.239-.02-.351-.057l-2.696-.89L3.846 9.5l2.1 1.732c.31.255.46.663.393 1.061-.072.43-.109.86-.109 1.28 0 .367.03.744.093 1.151.06.381-.077.762-.365 1.018l-2.12 1.891 1.558 2.698 2.558-.955c.125-.047.256-.07.391-.07.261 0 .518.091.722.26.628.518 1.334.932 2.096 1.232.357.14.617.447.695.82l.578 2.786h3.114l.453-2.69c.066-.396.341-.729.72-.87.773-.288 1.485-.693 2.121-1.199.201-.16.451-.249.706-.249.12 0 .239.02.352.057l2.697.892 1.558-2.699-2.1-1.733c-.31-.255-.462-.66-.395-1.06.072-.43.11-.86.11-1.28 0-.368-.03-.745-.094-1.15-.058-.383.078-.764.364-1.02l2.122-1.889-1.558-2.699-2.558.955c-.125.046-.258.071-.39.071-.262 0-.518-.093-.721-.26-.63-.519-1.335-.934-2.099-1.233-.357-.14-.616-.448-.694-.82l-.578-2.786zM14 9.918c2.019 0 3.655 1.637 3.655 3.655S16.019 17.228 14 17.228c-2.02 0-3.654-1.637-3.654-3.655S11.98 9.918 14 9.918zm0 .75c-1.602 0-2.904 1.303-2.904 2.905 0 1.602 1.302 2.905 2.904 2.905 1.602 0 2.905-1.303 2.905-2.905 0-1.602-1.303-2.905-2.905-2.905z" transform="translate(-1360 -121) translate(0 110) translate(1190 11.49) translate(170)"/>
                    </g>
                </g>
            </g>
        </g>
    </g>
</svg>
