<svg viewBox="0 0 84 22" xmlns="http://www.w3.org/2000/svg"><path d="M76 .203H64.2l-1.4 4.979h1.829l-5.829 9.35-.829-14.33h-11.97l-1.372 4.95 1.829.03-7.8 11.983h-6.429c-.686 0-3.286-.636-3.286-3.907 0-3.272 3.057-7.99 6.172-7.99l1.314.029c-.229.81-.686 2.49-.686 2.49h5.715L43.515.202 34.686.173c-5.486 0-9.914 3.995-11.314 8.106L25.658.23 17.8.202l-1.4 4.98h2.028l-2.057 7.294L11.23.23H4.001L2.629 5.18h2.029L.087 21.999h5.885s2.257-8.337 2.857-10.48L13.115 22h6.543l3-10.682c-.257 1.592-.286 3.242 0 4.892.571 3.503 3.943 5.79 7.6 5.79h11.886l2.029-3.127h8.37l.172 3.098h7.429l1.886-3.098h8.57L70.944 22h6.571L76.001.202zm-28.486 13.46l4.543-7.005.228 7.006h-4.77zm18.229-.086L70.286 6.6l.228 6.977h-4.77zm13.828 5.962c0-1.158.857-2.055 1.971-2.055 1.086 0 1.972.868 1.972 2.055s-.857 2.055-1.972 2.055c-1.114 0-1.971-.868-1.971-2.055zm1.971 2.46A2.448 2.448 0 0 0 84 19.54a2.448 2.448 0 0 0-2.457-2.46c-1.343 0-2.457 1.042-2.457 2.46S80.201 22 81.543 22zm-.514-2.257h.486l.743 1.215h.485l-.8-1.244c.4-.058.715-.26.715-.782 0-.55-.315-.81-1-.81H80.6v2.836h.428v-1.215zm0-.377v-.868h.572c.285 0 .6.058.6.405 0 .434-.315.463-.686.463h-.486z" fill="#fff"/></svg>