<?xml version="1.0" encoding="utf-8"?>
<!-- Generator: Adobe Illustrator 26.5.0, SVG Export Plug-In . SVG Version: 6.00 Build 0)  -->
<svg version="1.1" id="Layer_1" xmlns="http://www.w3.org/2000/svg" xmlns:xlink="http://www.w3.org/1999/xlink" x="0px" y="0px"
	 viewBox="0 0 300 128.95" style="enable-background:new 0 0 300 128.95;" xml:space="preserve">
<style type="text/css">
	.st0{fill:#FFFFFF;}
	.st1{fill:#511B00;}
</style>
<g>
	<path class="st0" d="M288.23,82.24c-2.26-2.53-8.58-9.69-9.4-10.62c-0.31-0.55-1.88-2.87-5.65-2.87c-0.35,0-0.72,0.02-1.09,0.06
		L256.4,56.14c-0.04-0.75-0.12-2.3-0.16-3.42c-0.01-0.21,0-0.44,0-0.69c0.04-1.75,0.11-4.69-3.49-6.95
		c-1.21-0.76-3.59-2.18-6.11-3.7c-2.91-1.74-5.91-3.54-7.18-4.36c0.58-1.53,1.6-5.06,0.45-8.86c-1.15-3.79-4.54-7.24-8.44-8.59
		c-3.18-1.1-7.15-1.26-9.24-1.26c-0.56,0-1.01,0.01-1.31,0.02c-0.95-0.8-4-3.13-8.06-4.08c-1.54-0.36-3.54-0.57-5.86-0.8
		c-4.92-0.51-11.05-1.14-16.67-3.6c-1.76-0.77-3.3-1.54-4.57-2.29c-0.27-0.16-0.57-0.24-0.88-0.24c0,0,0,0,0,0
		c-0.55,0-1.07,0.27-1.4,0.71c-0.33,0.45-0.42,1.01-0.26,1.55c0.16,0.52,0.33,1,0.5,1.44c-1.35-0.19-3.01-0.28-5.17-0.28
		c-0.48,0-0.96,0-1.44,0.01c-0.22,0-0.43,0-0.64,0c-4.66,0-8.97-0.75-14.42-2.52c-0.55-0.18-1.07-0.27-1.56-0.27
		c-1.86,0-2.89,1.25-3.23,2.43c-0.34,1.17-0.37,3.56-0.22,5.51c-0.19-0.05-0.39-0.11-0.6-0.16c-1.92-0.53-5.5-1.51-11.25-1.51
		c-5.03,0-10.72,0.76-16.9,2.26c-0.5,0.12-1.34,0.35-2.51,0.67c-6.47,1.78-21.61,5.94-32.35,6.13c-0.7,0.01-1.32,0.44-1.58,1.1
		c-0.26,0.65-0.1,1.4,0.4,1.89c1.96,1.91,5.99,5,9.15,6.79c-3.44,1.3-10.43,3.77-12.07,4.32c-3.66,1.22-13.33,4.02-25.05,4.02
		c-2.99,0-5.94-0.19-8.76-0.56c-0.08-0.01-0.16-0.02-0.23-0.02c-0.55,0-1.08,0.27-1.41,0.71c-0.33,0.45-0.42,1.02-0.25,1.55
		c0.77,2.43,3.1,9.77,16.21,12.43c-3.96,3.5-17.26,14-43.99,23.79c-0.67,0.25-1.12,0.87-1.14,1.59c-0.02,0.72,0.39,1.36,1.05,1.64
		c3.65,1.56,11.3,4.23,21.89,4.72c-4.16,4.47-17.4,17.95-36.19,30.07c-0.63,0.41-0.92,1.14-0.75,1.87c0.18,0.73,0.77,1.25,1.52,1.32
		c3.86,0.39,11.7,1.03,20.79,1.03c7.15,0,13.65-0.4,19.3-1.2c16.14-2.28,36.45-7.36,44.09-9.28c1.36-0.34,2.35-0.59,2.6-0.64
		c0.12-0.02,0.32-0.07,0.6-0.14c7.01-1.66,14.54-2.5,22.36-2.5c7.46,0,14.96,0.78,22.28,2.32c15.29,3.22,29.42,5.1,41.99,5.59
		l0.02,0l0.05,0c0.49,0,0.96-0.21,1.29-0.57c0.33-0.36,0.49-0.85,0.45-1.34c-0.31-3.15-0.68-13.74,7.25-18.09
		c0.58,0.04,2.07,0.14,4.14,0.14c2.4,0,6.12-0.13,10.19-0.75c6.63-1.01,11.22-3.2,12.63-3.93l21.96,9.44l0.79,3.31
		c0.12,0.5,0.45,0.91,0.9,1.15l13.88,7.09c0.29,0.18,1.93,1.12,3.92,1.37c0.39,0.05,0.82,0.08,1.26,0.08c1.41,0,2.79-0.25,3.62-0.4
		c0.17-0.03,0.32-0.06,0.44-0.08c7.89-1.27,11.29-1.89,12.13-2.21c1.63-0.62,2.96-2.84,2.86-4.15c-0.05-0.62-0.32-2.46-0.49-3.57
		l3.67-4.48c0.34-0.41,0.47-0.95,0.36-1.47l-0.73-3.37l2.06-5.76C288.97,88,290.15,84.4,288.23,82.24z M278.06,72.26
		c0.37,0.42,2.58,2.92,4.85,5.49c1.51,1.71,3.05,3.45,4.09,4.62c-1.04-1.17-2.58-2.91-4.09-4.62
		C280.64,75.19,278.43,72.68,278.06,72.26c-0.03-0.04-0.06-0.07-0.08-0.12c0,0,0,0,0,0c0,0,0,0,0,0
		C278,72.19,278.03,72.23,278.06,72.26z M277.86,71.96c-0.01-0.01-0.01-0.02-0.02-0.03C277.85,71.94,277.85,71.95,277.86,71.96z
		 M277.63,71.65c-0.01-0.02-0.03-0.04-0.04-0.05C277.6,71.62,277.61,71.63,277.63,71.65z M277.27,71.26
		c-0.02-0.02-0.04-0.04-0.07-0.06C277.22,71.22,277.25,71.24,277.27,71.26z M273.27,69.76c-0.07,0-0.14,0-0.21,0
		c0.04,0,0.08-0.01,0.11-0.01C273.21,69.76,273.24,69.76,273.27,69.76z M276.76,70.83c-0.02-0.02-0.05-0.03-0.07-0.05
		C276.72,70.8,276.74,70.82,276.76,70.83z M276.1,70.42c-0.01-0.01-0.03-0.01-0.04-0.02C276.08,70.41,276.09,70.41,276.1,70.42z
		 M275.34,70.1c-0.02-0.01-0.04-0.02-0.06-0.02C275.3,70.08,275.32,70.09,275.34,70.1z M274.41,69.87
		c-0.05-0.01-0.09-0.02-0.14-0.02C274.32,69.85,274.36,69.86,274.41,69.87z M238.96,28.47c0.28,0.92,0.42,1.82,0.46,2.68
		c0.09,1.71-0.19,3.25-0.51,4.37c-0.16,0.56-0.32,1.02-0.45,1.35c-0.13,0.33-0.02,0.7,0.28,0.9c2.1,1.37,10.82,6.5,13.49,8.18
		c3.63,2.28,2.95,5.23,3.01,6.83c0.05,1.19,0.13,2.85,0.17,3.55c0.01,0.21,0.11,0.4,0.27,0.54l15.86,12.82c0,0,0,0,0,0c0,0,0,0,0,0
		l-15.86-12.82c-0.16-0.13-0.26-0.33-0.27-0.54c-0.04-0.7-0.12-2.36-0.17-3.55c-0.06-1.6,0.62-4.55-3.01-6.83
		c-2.67-1.67-11.38-6.81-13.49-8.18c-0.3-0.19-0.41-0.57-0.28-0.9c0.13-0.33,0.3-0.78,0.45-1.35c0.32-1.12,0.6-2.66,0.51-4.37
		C239.38,30.29,239.24,29.38,238.96,28.47c-1.12-3.69-4.43-6.77-7.81-7.94c0,0,0,0,0,0c0,0,0,0,0,0
		C234.53,21.7,237.84,24.77,238.96,28.47z M271.88,69.81c-0.03-0.01-0.06-0.01-0.09-0.01C271.82,69.8,271.85,69.8,271.88,69.81z
		 M223.07,19.33c0.04,0,0.07,0,0.11,0C223.15,19.33,223.11,19.33,223.07,19.33z M223.97,19.36c0.07,0,0.13,0.01,0.2,0.01
		C224.1,19.37,224.04,19.36,223.97,19.36z M225.13,19.43c0.06,0,0.12,0.01,0.18,0.01C225.25,19.44,225.19,19.43,225.13,19.43z
		 M226.22,19.52c0.07,0.01,0.13,0.01,0.2,0.02C226.35,19.54,226.29,19.53,226.22,19.52z M227.47,19.68
		c0.08,0.01,0.16,0.02,0.24,0.04C227.62,19.7,227.54,19.69,227.47,19.68z M228.68,19.89c0.04,0.01,0.09,0.02,0.13,0.02
		C228.77,19.9,228.73,19.89,228.68,19.89z M229.87,20.15c0.08,0.02,0.16,0.04,0.24,0.07C230.03,20.2,229.95,20.17,229.87,20.15z
		 M222.3,19.32c-0.08,0-0.16,0-0.23,0c0.06,0,0.11,0,0.17,0C222.25,19.32,222.28,19.32,222.3,19.32z M221.13,19.34
		c-0.1,0-0.19,0.01-0.27,0.01C220.94,19.35,221.03,19.34,221.13,19.34z M221.87,19.33c-0.1,0-0.19,0-0.28,0
		C221.68,19.33,221.78,19.33,221.87,19.33z M221.47,19.33c-0.1,0-0.19,0-0.28,0.01C221.28,19.33,221.37,19.33,221.47,19.33z
		 M199.58,13.53c1.06,0.18,2.09,0.33,3.1,0.46c4.04,0.52,7.6,0.71,9.94,1.25c1.99,0.46,3.72,1.27,5.05,2.06
		c1.33,0.78,2.27,1.53,2.67,1.87c0,0,0,0,0,0c0,0,0,0,0,0c-0.4-0.34-1.34-1.09-2.67-1.87c-1.33-0.78-3.06-1.59-5.05-2.06
		c-2.34-0.54-5.91-0.74-9.94-1.25C201.68,13.86,200.64,13.71,199.58,13.53c-1.58-0.27-3.21-0.61-4.83-1.06
		C196.38,12.91,198,13.26,199.58,13.53z M220.67,19.32c-0.03-0.01-0.06-0.01-0.09-0.02C220.61,19.31,220.64,19.31,220.67,19.32z
		 M189.16,10.43c-0.5-0.23-0.96-0.44-1.38-0.65C188.2,9.99,188.66,10.21,189.16,10.43z M186.11,8.92c0.32,0.17,0.67,0.36,1.06,0.56
		C186.78,9.28,186.43,9.1,186.11,8.92c-0.32-0.17-0.6-0.34-0.85-0.48c-0.07-0.04-0.14-0.07-0.21-0.08c0.07,0.02,0.14,0.04,0.21,0.08
		C185.51,8.59,185.79,8.75,186.11,8.92z M187.59,105.2c-0.3,1.29-0.48,2.56-0.57,3.72C187.12,107.76,187.3,106.49,187.59,105.2z
		 M184.97,11.56c0-0.02,0.01-0.04,0-0.05C184.97,11.53,184.97,11.54,184.97,11.56z M184.95,11.67c-0.01,0.02-0.02,0.04-0.03,0.05
		C184.93,11.7,184.94,11.69,184.95,11.67z M184.37,12.06c-0.02,0-0.04,0.01-0.06,0.01C184.33,12.07,184.35,12.06,184.37,12.06z
		 M184.87,11.8c-0.01,0.02-0.03,0.03-0.05,0.05C184.84,11.84,184.85,11.82,184.87,11.8z M184.74,11.92
		c-0.02,0.01-0.04,0.03-0.06,0.04C184.7,11.94,184.72,11.93,184.74,11.92z M184.57,12c-0.02,0.01-0.04,0.02-0.07,0.03
		C184.53,12.02,184.55,12.01,184.57,12z M184.98,8.35c-0.04-0.01-0.08-0.01-0.12-0.01c0.01,0,0.02-0.01,0.02-0.01
		C184.92,8.34,184.95,8.34,184.98,8.35z M184.57,8.41c-0.02,0.01-0.03,0.02-0.05,0.03C184.54,8.43,184.56,8.42,184.57,8.41z
		 M184.32,8.61c-0.01,0.01-0.02,0.02-0.03,0.03C184.3,8.63,184.31,8.62,184.32,8.61z M184.17,8.91c-0.01,0.02-0.01,0.04-0.01,0.07
		C184.16,8.95,184.16,8.93,184.17,8.91z M183.86,12.07c0.07,0.01,0.15,0.02,0.23,0.02C184.02,12.09,183.94,12.08,183.86,12.07
		c-0.44-0.07-0.91-0.12-1.4-0.16C182.95,11.95,183.42,12,183.86,12.07z M181.99,11.87c-0.35-0.02-0.7-0.05-1.06-0.06
		C181.29,11.82,181.64,11.85,181.99,11.87z M180.37,11.79c-0.37-0.01-0.74-0.02-1.12-0.02C179.63,11.77,180,11.78,180.37,11.79z
		 M178.55,11.76c0.06,0,0.13,0,0.19,0c-0.54,0-1.08,0-1.62,0.01C177.6,11.76,178.08,11.76,178.55,11.76z M175.84,11.76
		c-0.28,0-0.56-0.01-0.83-0.02C175.29,11.75,175.57,11.76,175.84,11.76z M174.04,11.7c-0.27-0.02-0.54-0.03-0.82-0.05
		C173.5,11.67,173.77,11.68,174.04,11.7z M172.24,11.55c-0.27-0.03-0.54-0.05-0.81-0.09C171.7,11.5,171.97,11.52,172.24,11.55z
		 M170.41,11.32c-0.27-0.04-0.53-0.08-0.8-0.12C169.88,11.24,170.14,11.28,170.41,11.32z M168.53,10.99
		c-0.26-0.05-0.52-0.1-0.79-0.15C168.01,10.9,168.27,10.94,168.53,10.99z M166.59,10.57c-0.25-0.06-0.5-0.11-0.76-0.18
		C166.08,10.46,166.33,10.51,166.59,10.57z M164.49,10.03c-0.22-0.06-0.44-0.12-0.67-0.18C164.06,9.91,164.27,9.97,164.49,10.03z
		 M160.81,9.02C160.66,9,160.52,8.99,160.38,9c0.04,0,0.07-0.01,0.11-0.01C160.59,8.99,160.7,9.01,160.81,9.02z M161.74,9.21
		c-0.26-0.08-0.5-0.14-0.72-0.17C161.25,9.07,161.48,9.12,161.74,9.21z M159.26,9.31c-0.13,0.08-0.24,0.17-0.35,0.26
		C159.01,9.48,159.13,9.39,159.26,9.31z M160.2,9.01c-0.13,0.01-0.25,0.03-0.36,0.06C159.95,9.05,160.07,9.03,160.2,9.01z
		 M159.68,9.12c-0.13,0.04-0.25,0.1-0.36,0.16C159.44,9.22,159.55,9.16,159.68,9.12z M158.36,10.35c-0.05,0.11-0.1,0.23-0.13,0.34
		C158.26,10.58,158.3,10.47,158.36,10.35z M158.83,9.66c-0.07,0.07-0.14,0.15-0.2,0.23C158.69,9.81,158.76,9.73,158.83,9.66z
		 M158.55,10c-0.05,0.08-0.1,0.16-0.14,0.24C158.45,10.16,158.5,10.08,158.55,10z M158.11,16.6c0.01,0.08,0.01,0.14,0,0.2
		C158.11,16.74,158.11,16.68,158.11,16.6z M158.09,16.85c-0.01,0.03-0.02,0.07-0.04,0.09C158.07,16.92,158.08,16.88,158.09,16.85z
		 M157.54,17.05c0.05,0.01,0.1,0.01,0.15,0.01C157.65,17.07,157.6,17.06,157.54,17.05z M157.76,17.06c0.04,0,0.08-0.01,0.12-0.02
		C157.85,17.06,157.81,17.06,157.76,17.06z M157.94,17.03c0.03-0.01,0.05-0.03,0.08-0.05C157.99,17,157.97,17.02,157.94,17.03z
		 M157.46,17.05c-0.07-0.01-0.15-0.03-0.24-0.05C157.31,17.02,157.39,17.03,157.46,17.05z M157.17,16.99
		c-0.11-0.02-0.23-0.05-0.36-0.09C156.94,16.94,157.06,16.97,157.17,16.99z M156.72,16.88c-0.11-0.03-0.22-0.06-0.34-0.09
		C156.5,16.82,156.61,16.85,156.72,16.88z M155.99,16.68c-0.08-0.02-0.16-0.04-0.24-0.07C155.83,16.64,155.91,16.66,155.99,16.68z
		 M155.41,16.52c-0.08-0.02-0.17-0.04-0.25-0.07C155.25,16.48,155.33,16.5,155.41,16.52z M154.8,16.37
		c-0.09-0.02-0.19-0.05-0.28-0.07C154.61,16.32,154.71,16.34,154.8,16.37z M154.12,16.2c-0.1-0.02-0.21-0.05-0.31-0.07
		C153.91,16.16,154.02,16.18,154.12,16.2z M153.36,16.04c-0.11-0.02-0.22-0.05-0.33-0.07C153.14,15.99,153.25,16.02,153.36,16.04z
		 M152.52,15.88c-0.11-0.02-0.23-0.04-0.35-0.06C152.3,15.84,152.41,15.86,152.52,15.88z M151.58,15.72
		c-0.11-0.02-0.22-0.04-0.34-0.05C151.36,15.68,151.47,15.7,151.58,15.72z M150.46,15.56c-0.07-0.01-0.14-0.02-0.22-0.03
		C150.32,15.55,150.39,15.56,150.46,15.56z M149.16,15.43c-0.09-0.01-0.19-0.01-0.28-0.02C148.97,15.41,149.07,15.42,149.16,15.43z
		 M148,15.34c-0.15-0.01-0.3-0.01-0.45-0.02C147.7,15.32,147.85,15.33,148,15.34z M146.75,15.28c-0.18-0.01-0.36-0.01-0.54-0.01
		C146.4,15.27,146.58,15.28,146.75,15.28z M145.42,15.26c-0.18,0-0.37,0-0.55,0c0.11,0,0.23-0.01,0.33-0.01
		C145.27,15.25,145.34,15.26,145.42,15.26z M103.13,108.58c-0.37,0.07-0.71,0.14-1.03,0.2
		C102.42,108.72,102.76,108.65,103.13,108.58z M121.67,106.86c-0.63,0-1.26,0.01-1.87,0.02
		C120.42,106.87,121.04,106.87,121.67,106.86z M129.45,107.12c-0.71-0.05-1.41-0.09-2.11-0.13
		C128.04,107.03,128.74,107.07,129.45,107.12z M127.03,106.98c-0.79-0.04-1.57-0.06-2.34-0.08
		C125.46,106.92,126.24,106.94,127.03,106.98z M124.03,106.88c-0.56-0.01-1.12-0.02-1.66-0.02
		C122.92,106.87,123.47,106.87,124.03,106.88z M143.88,15.28c-0.19,0-0.39,0.01-0.59,0.02C143.49,15.29,143.68,15.28,143.88,15.28z
		 M142.19,15.35c-0.19,0.01-0.37,0.02-0.57,0.03C141.82,15.37,142,15.36,142.19,15.35z M140.09,15.5c-0.07,0.01-0.14,0.01-0.21,0.02
		C139.95,15.51,140.01,15.51,140.09,15.5z M138.02,15.72c-0.19,0.02-0.4,0.05-0.6,0.08C137.63,15.78,137.83,15.75,138.02,15.72z
		 M136.05,16c-0.25,0.04-0.5,0.08-0.75,0.12C135.55,16.07,135.8,16.03,136.05,16z M133.93,16.35c-0.26,0.05-0.53,0.09-0.8,0.15
		C133.41,16.44,133.67,16.4,133.93,16.35z M131.61,16.8c-0.24,0.05-0.48,0.1-0.72,0.15C131.14,16.89,131.37,16.85,131.61,16.8z
		 M119.49,106.89c-0.71,0.02-1.41,0.04-2.09,0.07C118.08,106.93,118.78,106.91,119.49,106.89z M116.85,106.99
		c-0.51,0.02-1.01,0.05-1.5,0.08C115.84,107.04,116.34,107.01,116.85,106.99z M114.77,107.11c-0.57,0.04-1.12,0.08-1.66,0.13
		C113.65,107.19,114.2,107.14,114.77,107.11z M112.89,107.25c-0.61,0.05-1.2,0.11-1.78,0.17
		C111.69,107.36,112.28,107.3,112.89,107.25z M110.65,107.47c-0.43,0.05-0.85,0.09-1.26,0.14
		C109.8,107.56,110.22,107.51,110.65,107.47z M108.93,107.67c-0.49,0.06-0.96,0.12-1.41,0.19
		C107.97,107.79,108.44,107.73,108.93,107.67z M107.4,107.87c-0.5,0.07-0.97,0.14-1.43,0.22
		C106.42,108.01,106.9,107.94,107.4,107.87z M105.61,108.15c-0.34,0.06-0.67,0.11-0.99,0.17
		C104.94,108.26,105.27,108.2,105.61,108.15z M104.28,108.37c-0.38,0.07-0.75,0.13-1.1,0.2C103.53,108.5,103.9,108.44,104.28,108.37
		z M101.84,108.84c-0.24,0.05-0.46,0.1-0.67,0.14C101.38,108.93,101.6,108.89,101.84,108.84z M100.95,109.03
		c-0.54,0.12-0.98,0.22-1.33,0.3C99.97,109.25,100.42,109.14,100.95,109.03z M94.85,110.49c-0.15,0.04-0.29,0.07-0.45,0.11
		C94.56,110.57,94.71,110.53,94.85,110.49z M89.66,38.37c-0.08,0.03-0.2,0.07-0.33,0.11C89.46,38.43,89.58,38.39,89.66,38.37z
		 M92.64,111.04c-0.17,0.04-0.35,0.09-0.53,0.13C92.29,111.13,92.46,111.09,92.64,111.04z M69.15,42.29c0.7-0.04,1.39-0.1,2.06-0.16
		C70.53,42.19,69.85,42.24,69.15,42.29z M64.46,42.44c0.72,0,1.43-0.01,2.13-0.03C65.89,42.43,65.18,42.44,64.46,42.44z M67,42.39
		c0.7-0.03,1.39-0.06,2.07-0.1C68.39,42.33,67.69,42.37,67,42.39z M89.24,38.5c-0.15,0.05-0.32,0.11-0.52,0.17
		C88.92,38.61,89.09,38.55,89.24,38.5z M88.61,38.71c-0.2,0.06-0.43,0.13-0.68,0.21C88.19,38.84,88.41,38.77,88.61,38.71z
		 M87.87,38.93c-0.26,0.08-0.55,0.16-0.85,0.25C87.33,39.1,87.62,39.01,87.87,38.93z M86.84,39.24c-0.32,0.09-0.65,0.18-1.01,0.28
		C86.19,39.42,86.52,39.33,86.84,39.24z M85.67,39.56c-0.35,0.09-0.72,0.19-1.11,0.29C84.94,39.76,85.32,39.66,85.67,39.56z
		 M84.43,39.89c-0.41,0.1-0.84,0.21-1.29,0.31C83.58,40.09,84.02,39.99,84.43,39.89z M82.86,40.26c-0.46,0.11-0.93,0.21-1.43,0.32
		C81.93,40.48,82.4,40.37,82.86,40.26z M81.26,40.62c-0.47,0.1-0.97,0.2-1.47,0.3C80.29,40.82,80.78,40.72,81.26,40.62z
		 M79.56,40.96c-0.53,0.1-1.08,0.2-1.64,0.3C78.47,41.16,79.02,41.06,79.56,40.96z M77.56,41.31c-0.58,0.1-1.17,0.19-1.78,0.28
		C76.4,41.5,76.99,41.41,77.56,41.31z M75.63,41.61c-0.58,0.08-1.17,0.16-1.78,0.23C74.45,41.78,75.05,41.7,75.63,41.61z
		 M73.53,41.89c-0.63,0.07-1.27,0.14-1.92,0.2C72.25,42.03,72.9,41.96,73.53,41.89z M55.4,41.88c0.68,0.09,1.36,0.16,2.03,0.23
		C56.76,42.04,56.08,41.97,55.4,41.88c-0.09-0.01-0.18,0.01-0.26,0.03c0.05-0.01,0.1-0.04,0.16-0.04
		C55.33,41.87,55.37,41.87,55.4,41.88z M63.99,42.44c-0.51,0-1.03-0.01-1.55-0.02C62.96,42.43,63.48,42.44,63.99,42.44z M61.98,42.4
		c-0.65-0.02-1.3-0.05-1.96-0.09C60.68,42.35,61.33,42.38,61.98,42.4z M59.64,42.29c-0.55-0.04-1.1-0.08-1.65-0.13
		C58.54,42.21,59.09,42.25,59.64,42.29z M55,41.94c-0.07,0.03-0.12,0.08-0.17,0.12C54.88,42.02,54.93,41.97,55,41.94z M54.72,42.15
		c-0.05,0.06-0.07,0.13-0.1,0.21C54.65,42.29,54.67,42.22,54.72,42.15z M54.57,42.47c-0.02,0.12-0.02,0.24,0.02,0.36
		C54.55,42.71,54.55,42.58,54.57,42.47z M70.15,56.63c-0.04,0.04-0.08,0.07-0.12,0.11C70.07,56.7,70.11,56.66,70.15,56.63z
		 M58.85,64.79c1.72-1.07,3.26-2.09,4.62-3.03c1.77-1.23,3.24-2.33,4.44-3.27c-1.2,0.95-2.67,2.05-4.44,3.27
		C62.11,62.7,60.57,63.71,58.85,64.79c-1.72,1.07-3.63,2.2-5.72,3.37C55.23,66.99,57.13,65.86,58.85,64.79z M69.35,57.31
		c-0.2,0.17-0.41,0.34-0.64,0.53C68.94,57.65,69.15,57.48,69.35,57.31z M48.07,70.85c1.2-0.61,2.34-1.21,3.44-1.81
		C50.42,69.63,49.27,70.24,48.07,70.85c-1.8,0.92-3.71,1.85-5.73,2.79C44.37,72.69,46.28,71.76,48.07,70.85z M47.46,119.97
		c-0.06,0.01-0.11,0.01-0.17,0.02C47.35,119.98,47.4,119.98,47.46,119.97z M40.28,74.58c-1.4,0.63-2.86,1.27-4.37,1.9
		C37.42,75.85,38.87,75.21,40.28,74.58z M42.65,120.34c-0.08,0-0.15,0.01-0.23,0.01C42.49,120.35,42.57,120.35,42.65,120.34z
		 M37.84,120.55c-0.07,0-0.14,0-0.21,0.01C37.7,120.55,37.77,120.55,37.84,120.55z M31.36,120.6c-0.08,0-0.16,0-0.24,0
		C31.2,120.6,31.28,120.6,31.36,120.6z M29.81,120.58c-0.17,0-0.34-0.01-0.51-0.01C29.47,120.58,29.64,120.58,29.81,120.58z
		 M28.28,120.55c-0.18,0-0.37-0.01-0.55-0.01C27.91,120.54,28.09,120.55,28.28,120.55z M26.76,120.51c-0.17-0.01-0.34-0.01-0.5-0.02
		C26.42,120.5,26.59,120.51,26.76,120.51z M25.21,120.46c-0.13-0.01-0.26-0.01-0.39-0.01C24.95,120.45,25.08,120.45,25.21,120.46z
		 M23.42,120.38c-0.02,0-0.03,0-0.05,0C23.39,120.38,23.41,120.38,23.42,120.38z M22.09,120.31c-0.13-0.01-0.26-0.01-0.39-0.02
		C21.83,120.3,21.96,120.31,22.09,120.31z M20.8,120.24c-0.15-0.01-0.29-0.02-0.43-0.03C20.51,120.23,20.66,120.23,20.8,120.24z
		 M19.54,120.17c-0.13-0.01-0.26-0.02-0.39-0.03C19.27,120.15,19.41,120.16,19.54,120.17z M18.31,120.08
		c-0.11-0.01-0.22-0.01-0.32-0.02C18.09,120.07,18.2,120.08,18.31,120.08z M16.9,119.98c-0.01,0-0.01,0-0.02,0
		C16.89,119.98,16.9,119.98,16.9,119.98z M15.89,119.9c-0.1-0.01-0.19-0.02-0.28-0.02C15.7,119.89,15.79,119.89,15.89,119.9z
		 M14.94,119.82c-0.1-0.01-0.2-0.02-0.3-0.03C14.74,119.81,14.84,119.81,14.94,119.82z M14.05,119.74
		c-0.09-0.01-0.18-0.02-0.27-0.02C13.87,119.73,13.96,119.74,14.05,119.74z M13.24,119.67c-0.08-0.01-0.16-0.01-0.23-0.02
		C13.09,119.66,13.17,119.66,13.24,119.67z M32.93,120.61c0.06,0,0.11,0,0.17,0c-0.02,0-0.05,0-0.07,0
		C33,120.61,32.97,120.61,32.93,120.61z M69.31,116.38c1.28-0.26,2.55-0.53,3.81-0.8C71.86,115.85,70.59,116.11,69.31,116.38z
		 M98.25,109.65c0.28-0.07,0.48-0.11,0.58-0.14c0,0,0,0,0,0c0,0,0,0,0,0C98.72,109.53,98.53,109.58,98.25,109.65z M99.28,109.41
		c-0.06,0.01-0.13,0.03-0.18,0.04C99.15,109.44,99.21,109.43,99.28,109.41z M141.69,108.66c0.91,0.17,1.84,0.35,2.77,0.54
		C143.52,109.01,142.6,108.83,141.69,108.66z M130.23,107.18c0.6,0.05,1.21,0.1,1.82,0.15
		C131.45,107.28,130.84,107.23,130.23,107.18z M132.82,107.41c0.85,0.08,1.7,0.18,2.57,0.29
		C134.52,107.58,133.67,107.49,132.82,107.41z M135.62,107.72c0.8,0.1,1.61,0.21,2.42,0.33
		C137.23,107.93,136.42,107.82,135.62,107.72z M138.87,108.18c0.66,0.1,1.32,0.21,1.98,0.33
		C140.19,108.4,139.53,108.29,138.87,108.18z M186.3,114.77L186.3,114.77c0.07,0,0.13-0.02,0.2-0.04c-0.06,0.01-0.11,0.04-0.17,0.04
		C186.31,114.77,186.3,114.77,186.3,114.77z M186.62,114.71c0.06-0.03,0.1-0.07,0.15-0.11
		C186.72,114.64,186.68,114.68,186.62,114.71z M186.87,114.53c0.05-0.05,0.08-0.11,0.11-0.18
		C186.94,114.42,186.91,114.48,186.87,114.53z M187.02,114.27c0.03-0.1,0.05-0.21,0.04-0.32c-0.06-0.6-0.12-1.48-0.13-2.55
		c0.01,1.07,0.07,1.95,0.13,2.55C187.07,114.07,187.06,114.17,187.02,114.27z M189.22,100.7c-0.67,1.28-1.14,2.62-1.48,3.94
		C188.08,103.32,188.55,101.98,189.22,100.7c1.2-2.3,3-4.4,5.68-5.85c0.1-0.05,0.21-0.08,0.32-0.08c-0.11,0.01-0.22,0.03-0.32,0.08
		C192.22,96.31,190.42,98.41,189.22,100.7z M195.32,94.77c0.07,0.01,0.15,0.01,0.25,0.02C195.48,94.78,195.39,94.77,195.32,94.77z
		 M195.68,94.79c0.08,0.01,0.17,0.01,0.27,0.02C195.84,94.8,195.76,94.8,195.68,94.79z M196.09,94.82c0.1,0.01,0.2,0.01,0.3,0.02
		C196.28,94.83,196.18,94.82,196.09,94.82z M196.59,94.84c0.11,0,0.22,0.01,0.34,0.01C196.81,94.85,196.7,94.85,196.59,94.84z
		 M197.17,94.87c0.12,0,0.25,0.01,0.38,0.01C197.42,94.88,197.3,94.87,197.17,94.87z M197.84,94.89c0.14,0,0.28,0.01,0.42,0.01
		C198.12,94.89,197.98,94.89,197.84,94.89z M198.57,94.9c0.16,0,0.33,0,0.5,0C198.9,94.9,198.73,94.9,198.57,94.9z M199.38,94.91
		c0.11,0,0.23,0,0.35,0c-0.09,0-0.19,0-0.28,0C199.43,94.91,199.4,94.91,199.38,94.91z M203.01,94.81c-0.17,0.01-0.33,0.02-0.5,0.02
		C202.68,94.83,202.85,94.82,203.01,94.81z M201.86,94.86c-0.15,0.01-0.31,0.01-0.46,0.01C201.55,94.87,201.7,94.87,201.86,94.86z
		 M200.77,94.89c-0.14,0-0.28,0.01-0.42,0.01C200.49,94.9,200.63,94.89,200.77,94.89z M203.7,94.77c0.17-0.01,0.35-0.02,0.52-0.03
		C204.04,94.75,203.87,94.76,203.7,94.77z M204.94,94.69c0.18-0.01,0.35-0.03,0.53-0.04C205.3,94.66,205.12,94.67,204.94,94.69z
		 M206.26,94.57c0.17-0.02,0.35-0.03,0.52-0.05C206.6,94.54,206.43,94.55,206.26,94.57z M207.67,94.41c0.15-0.02,0.3-0.03,0.45-0.05
		C207.97,94.38,207.82,94.39,207.67,94.41z M213.02,93.48c4.74-1.12,7.93-2.69,8.9-3.2c0.1-0.06,0.22-0.08,0.33-0.08
		c-0.11,0-0.23,0.03-0.33,0.08C220.95,90.79,217.76,92.36,213.02,93.48z M264.88,112.65c0.11,0,0.22,0,0.34,0
		c-0.07,0-0.15,0.01-0.22,0.01C264.95,112.66,264.92,112.65,264.88,112.65z M265.45,112.65c0.16-0.01,0.33-0.02,0.49-0.03
		C265.78,112.63,265.62,112.64,265.45,112.65z M266.13,112.6c0.22-0.02,0.43-0.04,0.64-0.07
		C266.56,112.56,266.35,112.58,266.13,112.6z M266.87,112.52c0.18-0.02,0.35-0.05,0.51-0.07
		C267.22,112.48,267.05,112.5,266.87,112.52z M267.58,112.42c0.13-0.02,0.26-0.04,0.37-0.06
		C267.83,112.38,267.71,112.4,267.58,112.42z M268.14,112.32c0.13-0.02,0.27-0.05,0.38-0.07
		C268.4,112.28,268.28,112.3,268.14,112.32z M280.84,110.04c-0.91,0.35-6.1,1.22-11.93,2.15c0,0,0,0-0.01,0c0,0,0,0,0.01,0
		C274.73,111.25,279.93,110.38,280.84,110.04c0.32-0.12,0.63-0.33,0.9-0.59C281.46,109.71,281.16,109.91,280.84,110.04z
		 M288.11,87.31c-0.08,0.32-0.14,0.52-0.14,0.52l-2.08,5.83c-0.05,0.13-0.06,0.27-0.03,0.41l0.74,3.44
		c0.05,0.22-0.01,0.45-0.15,0.63l-3.75,4.57c-0.13,0.16-0.19,0.37-0.16,0.58c0.13,0.82,0.45,2.97,0.5,3.61
		c0.04,0.5-0.33,1.41-0.93,2.14c0.6-0.73,0.97-1.64,0.93-2.14c-0.05-0.64-0.38-2.79-0.5-3.61c-0.03-0.21,0.03-0.42,0.16-0.58
		l3.75-4.57c0.14-0.17,0.2-0.4,0.15-0.63l-0.74-3.44c-0.03-0.13-0.02-0.28,0.03-0.41l2.08-5.83
		C287.97,87.83,288.04,87.63,288.11,87.31c0.15-0.65,0.34-1.8,0.1-2.89C288.45,85.5,288.27,86.66,288.11,87.31z"/>
	<g>
		<g>
			<g>
				<path class="st0" d="M246.83,97.7l-24.88-11.05c0,0-11.77,6.99-26.39,3.88c0,0-12.42,7.37-11.39,20.7c0,0-18.5-0.52-35.18-4.84
					c-10.82-2.8-33.8-4.83-50.22-0.64s-55.37,14.81-79.83,10.94c0,0,22.34-14.06,37.45-33.02c-13.28-0.14-23.25-3.09-23.25-3.09
					S62.11,70.1,78.27,52.75c0,0-14.39-0.01-19.39-8.24c0,0,14.86,3.64,35.9-5.18c3.69-1.54,15.18-6.11,15.18-6.11
					c-8.25-3.54-12.25-6.7-12.25-6.7c28.74-1.46,38.25-15.66,68.46-3.83c0,0-3.6-2.59-5.05-5.24c-1.48-2.7-1.69-5.01-1.69-5.01
					s4.83,1.15,9.23,1.8s12.03,0.26,13.84,0.52c1.81,0.26,6.79,1.16,6.79,1.16s-2.46-2.7-3.11-4.77c0,0,10.24,4.64,15.02,5.42
					c4.79,0.78,11.83,1.94,15.07,3.88s4.83,1.94,4.83,1.94s9.97-0.74,13.8,3.35c3.88,4.14,1.67,9.67-0.4,12.51l15.84,9.17
					c0,0,2.08,0.91,2.08,3.62s0.53,6.28,0.53,6.28L270.8,71.8c0,0,4.14,0.01,5.3,1.18s9.29,10.57,9.29,10.57s1.31,0.91,0.92,2.2
					s-2.98,7.5-2.98,7.5l1.04,2.2c0,0,0.11,1.97-0.53,2.88s-2.43,2.82-2.43,2.82l-1.16,1.29l1.29,2.85c0,0-0.65,2.07-2.2,2.59
					c-1.55,0.52-13.2,2.46-13.2,2.46s-1.42,0.39-3.62-0.52c-2.2-0.91-14.33-8.02-14.33-8.02L246.83,97.7z"/>
				<path class="st1" d="M173.47,74.79c-17.53,5.5-30.11,22.92-31.83,30.3c0,0,7.15,1.22,10.35,1.91c3.49,0.76,7.93,1.52,11.62,1.98
					c0,0-1.6-2.27-0.08-7.41c1.25-4.23,4.99-12.59,15.17-17.88C174.73,80.39,173.47,74.79,173.47,74.79"/>
				<path class="st1" d="M250.32,90.39c3.86,0.75,11.71,8.89,15.67,12.57l16.4-2.4l-1.53,3.16c0,0-12.93,2.17-15.34,2.68
					c-2.67-0.9-12.47-5.22-15.32-7.44c0,0-1.47-4.16-2.22-7.49c0,0,5.38,5.56,7.56,6.83C254.17,95.75,250.32,90.39,250.32,90.39"/>
				<path class="st1" d="M240.36,81.14c4.84,1.24,10.46,5.15,10.46,5.15c-4.22-1.22-6.71-1.83-8.29-0.74
					c-1.58,1.1-0.27,6.06-0.27,6.06c-0.8-2.27-5.43-8.28-5.43-8.28C237.78,82.28,240.36,81.14,240.36,81.14"/>
				<path class="st1" d="M137.21,44.86c15.15-6.99,30.18-13.14,46.51-12.43c1.03,0.05-0.96,0.08-3.44-5.58
					c-3.62-8.25-14.94-3.6-15.95-10.98c-0.03-0.2,0.18-0.33,0.36-0.24c7.04,3.77,24.13-0.99,33.53,10.25
					c2.57,2.81,1.78,5.79,0.56,8.15c-0.07,0.14,0,0.3,0.15,0.34c4.5,1.08,9.13,2.47,12.46,3.51c0.26,0.08,0.4-0.22,0.21-0.42
					c-1.94-2.11-5.33-4.31-6.5-5.48c-0.18-0.18,0.03-0.5,0.26-0.4c7.86,3.2,13.56,6.21,20.15,10.31c0.4,0.25,0.91-0.1,0.81-0.56
					c-0.3-1.36-0.59-2.9-0.96-4.02c-0.07-0.22,0.16-0.4,0.35-0.28c3.21,2.03,19.05,11.49,22.17,13.47c0.35,0.22,0.56,0.6,0.57,1.01
					l0.12,5.58c0,0.07,0.03,0.14,0.09,0.18c5.52,4.48,12.22,10.09,19.87,17.25c0.05,0.05,0.12,0.07,0.19,0.07
					c0.57-0.07,3.3-0.35,5.15,0.33c0.04,0.01,0.06,0.03,0.09,0.06c0.53,0.53,6.6,6.61,8.87,10.29c0.04,0.07,0.05,0.15,0.01,0.22
					l-3.13,9.08c-0.03,0.07-2.06,0.27-2.67,0.39c-0.18,0.03,2.68-8.9,2.68-8.9c0.03-0.09,0.01-0.19-0.06-0.26l-6.55-6.14
					c-0.04-0.03-0.08-0.06-0.13-0.06c-1.76-0.31-3.7-0.35-5.28-0.42c-0.23-0.01-0.34,0.26-0.18,0.42c1.58,1.45,6.25,6.12,5,9.57
					c-0.01,0.02-0.02,0.04-0.03,0.06c-0.51,0.93-1.41,1.52-2.45,1.81c-2.46,0.5-7.44-1.72-9.78-3.76c-0.19-0.16-0.46,0.02-0.39,0.26
					c0.36,1.17,0.92,2.22,1.59,3.29c-4.83-3.59-7.66-8.84-7.81-14.56c0-0.05,0.01-0.09,0.03-0.14c0.61-1.26,2.3-0.97,3.92-0.84
					c0.27,0.02,0.36-0.35,0.12-0.46c-2.53-1.2-7.05-3.06-9.6-3.65c-0.12-0.03-0.23,0.03-0.27,0.14c-0.16,0.39-0.52,1.38-0.72,2.72
					c-0.03,0.18-0.22,0.27-0.37,0.17c-4.12-2.72-8.39-4.23-9.19-4.57c-0.11-0.05-0.23-0.01-0.3,0.1c-0.21,0.34-0.63,1.18-0.67,2.51
					c0,0.07,0.02,0.13,0.06,0.18c0.31,0.33,1.65,1.82,3.08,4.14c0.13,0.22-0.12,0.46-0.34,0.34c-4.74-2.75-8.41-4.97-12.97-7.43
					c-0.07-0.04-0.13-0.12-0.13-0.2c-0.13-1.36,0.53-2.42,0.86-2.86c0.09-0.12,0.06-0.28-0.07-0.36c-2.8-1.52-8.76-4.57-12.12-6.33
					c-0.73-0.38-1.57-0.46-2.35-0.22c-1.37,0.42-3.23,0.91-4.52,1.24c-0.61,0.16-0.79,0.94-0.3,1.35c2.55,2.15,4.36,4.44,4.64,6.97
					c0.83,3.99-0.41,7.11-3.39,9.42c-0.01,0.01-0.02,0.02-0.03,0.02c-3.86,2.52-10.76,2.89-16.66,0.88c0.01,0,0.01,0.01,0.02,0.01
					c-0.03-0.01-0.06-0.02-0.1-0.04c-0.23-0.08-0.46-0.17-0.69-0.25c-0.2-0.08-0.41-0.16-0.61-0.24c-0.19-0.08-0.38-0.16-0.57-0.25
					c-0.25-0.11-0.49-0.23-0.73-0.35c-0.15-0.08-0.3-0.15-0.45-0.23c-0.39-0.21-0.77-0.42-1.13-0.65
					c-11.18-5.62-8.26-24.46-5.48-28.47c0.1-0.15,0-0.35-0.18-0.37c-1.96-0.18-4.02-0.11-4.51-0.08c-0.08,0-0.14,0.04-0.18,0.1
					c-1.45,2.03-2.98,6.05-3.29,6.86c-0.03,0.09-0.12,0.15-0.21,0.15c-21.31,0.63-47.68,18.17-61.75,35.77
					c-1.85,2.31-9.92,12.3-11.77,14.39c-23.04,6.49-55.16,13.52-76.02,12.42c-1.91-0.1-10.06-0.58-0.93-1.62
					C75.55,110.63,97.36,63.24,137.21,44.86"/>
				<path class="st1" d="M231.89,35.22c-1.57-3.8-3.88-6.92-6.66-9.45c12.17,1.96,6.79,9.38,6.79,9.38L231.89,35.22z"/>
				<path class="st0" d="M235.77,55.57l-19.66-11.58l-2.85,0.66C213.27,44.65,220.63,63.48,235.77,55.57z"/>
				<circle class="st1" cx="225.87" cy="49.44" r="4.57"/>
				<path class="st0" d="M259.39,78.57c-0.36,0-0.5,0.4-0.29,1.06c1.13,3.25,3.44,7.1,7.37,8.13c0.82,0.09,2.37,0.26,2.48-0.62
					c0.26-3.1-3.35-3.9-5.43-5.49c-0.1-0.09-0.22-0.21-0.32-0.31c0.79-0.43,2.26,0.05,3.19,0.09
					C264.49,79.66,262.17,78.57,259.39,78.57"/>
				<path class="st1" d="M110.29,29.88c1.38,0.38,4.04,0.83,6.25,0.94c12.2,0.58,21-3.79,33.36-1.45c6.93,1.31,8.47,3.52,8.47,3.52
					l6.63-1.62c0,0-2.97-3.44-10.52-4.98c-6.84-1.4-13.54-1.45-20.02,0.03c-6.47,1.48-17.35,3.11-23.22,2.33
					C106.55,28.02,107.29,29.05,110.29,29.88z"/>
				<path class="st1" d="M79.29,49.02c0,0,4.06,1.77,14.22-1.33c20.24-6.16,32.27-0.78,32.27-0.78l6.17-3.35
					c0,0-3.49-3.25-13.83-3.45c-9.91-0.19-16.08,2.06-17.78,2.68c-2.99,1.11-12.16,5.52-18.94,5.16
					C76.41,47.68,79.29,49.02,79.29,49.02z"/>
				<path class="st1" d="M102.61,63.12c0,0-11.35-5.98-36.37,10.12c-7.99,5.14-15.83,6.6-17.22,6.6s-2.72-0.71-0.21-1.39
					c2.78-0.76,9.22-2.58,21.14-11.19c6.03-4.36,18.48-9.81,27.25-10.95c7.8-1.01,11.73,1.77,11.73,1.77L102.61,63.12z"/>
				<path class="st1" d="M81.83,82.22c0,0-6.11-0.39-13.65,5.39c-7.54,5.79-13.37,11.01-15.28,12.5c-2.37,1.84-8.02,6.48-9.79,7.64
					c-1.6,1.04-2.29,0.04-0.89-0.93s8.12-6.69,17.5-15.98c2.47-2.44,12.8-13.37,27.69-13.49L81.83,82.22z"/>
				<path class="st1" d="M218.83,31.54c1.52,0.93,1.23-1.32,0.34-3.11c-1.16-2.32-2.41-5.84-12.92-7.63
					c-3.61-0.61-6.67-1.15-8.83-1.4c-2.71-0.31-2.91,0.29-0.4,1.43C200.66,22.51,213.21,28.12,218.83,31.54z"/>
				<g>
					<path class="st1" d="M231.15,20.53c3.38,1.17,6.69,4.24,7.81,7.94c1.11,3.67,0.02,7.09-0.5,8.4c-0.13,0.33-0.02,0.7,0.28,0.9
						c2.1,1.37,10.82,6.5,13.49,8.18c3.63,2.28,2.95,5.23,3.01,6.83c0.05,1.19,0.13,2.85,0.17,3.55c0.01,0.21,0.11,0.4,0.27,0.54
						l15.86,12.82c0.16,0.13,0.36,0.18,0.56,0.16c4.1-0.49,5.64,1.91,5.87,2.32c0.02,0.04,0.05,0.08,0.08,0.12
						c0.66,0.74,7.13,8.08,9.42,10.64c1.56,1.75,0.49,4.92,0.49,4.92l-2.08,5.83c-0.05,0.13-0.06,0.27-0.03,0.41l0.74,3.44
						c0.05,0.22-0.01,0.45-0.15,0.63l-3.75,4.57c-0.13,0.16-0.19,0.37-0.16,0.58c0.13,0.82,0.45,2.97,0.5,3.61
						c0.06,0.8-0.92,2.65-2.21,3.14c-0.91,0.35-6.1,1.22-11.93,2.15c-0.86,0.14-3.11,0.65-5.04,0.4c-1.82-0.23-3.37-1.14-3.55-1.25
						c-0.01-0.01-0.03-0.02-0.04-0.02l-13.88-7.09c-0.19-0.1-0.33-0.28-0.38-0.49l-0.82-3.43c-0.05-0.22-0.21-0.41-0.42-0.5
						l-22.2-9.54c-0.21-0.09-0.45-0.09-0.65,0.02c-1.19,0.64-5.74,2.87-12.42,3.89c-7,1.07-12.98,0.69-14.18,0.6
						c-0.14-0.01-0.29,0.02-0.42,0.09c-8.58,4.65-8.15,15.92-7.84,19.1c0.04,0.45-0.32,0.83-0.77,0.82
						c-16.06-0.62-31.66-3.43-41.82-5.57c-25.14-5.29-44.01-0.02-45.64,0.31c-1.63,0.33-27.36,7.18-46.63,9.9
						c-15.76,2.23-33.8,0.77-39.85,0.17c-0.7-0.07-0.91-0.98-0.32-1.36C31.5,105.65,45,91.68,48.78,87.58
						c0.43-0.46,0.11-1.21-0.52-1.24c-10.96-0.43-18.85-3.27-22.1-4.67c-0.62-0.26-0.59-1.14,0.04-1.37
						c27.65-10.13,40.97-20.95,44.71-24.34c0.45-0.41,0.23-1.16-0.37-1.27c-12.87-2.44-15.15-9.32-15.94-11.84
						c-0.17-0.52,0.27-1.03,0.81-0.96c17.17,2.25,32.4-2.89,34.25-3.51c1.65-0.55,9.4-3.29,12.64-4.53
						c0.59-0.23,0.64-1.04,0.08-1.35c-3.16-1.71-7.48-5.02-9.41-6.9c-0.47-0.46-0.16-1.26,0.5-1.27
						c12.81-0.23,31.84-6.05,35.07-6.83c23.07-5.6,29.81,1.38,29.57-0.89c-0.24-2.27-0.18-4.89,0.12-5.9
						c0.3-1.01,1.31-2.21,3.52-1.49c5.84,1.89,10.44,2.64,15.38,2.56c2.4-0.04,4.83,0,6.74,0.3c0.6,0.09,1.31-0.19,1.06-0.74
						c-0.29-0.65-0.54-1.38-0.75-2.02c-0.2-0.65,0.49-1.21,1.08-0.86c1.01,0.59,2.53,1.4,4.67,2.34c8.43,3.69,18.02,3.37,22.7,4.46
						c3.97,0.92,6.92,3.25,7.72,3.93c0.14,0.12,0.32,0.18,0.51,0.18C222.13,19.3,227.27,19.19,231.15,20.53z M23.36,115.17
						c-0.03,0.02-2.14,1.27-0.04,1.34c6.27,0.2,24.8,0.08,42.39-3.77c21.75-4.77,36.35-8.45,39.2-8.99s15.53-3.92,43.58,1.61
						c22.93,4.52,31.28,5.09,33.56,5.15c0.39,0.01,0.72-0.29,0.75-0.68c0.22-2.89,1.76-14.29,12.6-20.08
						c0.17-0.09,0.37-0.11,0.55-0.06c1.87,0.53,12.95,3.17,25.91-3.82c0.21-0.11,0.46-0.12,0.67-0.02l24.66,11.31
						c0.18,0.09,0.33,0.25,0.39,0.44l1.12,3.48c0.06,0.18,0.19,0.33,0.35,0.43l9.58,5.16l3.69,2c0,0,1.31,0.77,2.46,0.77
						c1.15,0,14.22-2.31,14.22-2.31s1.15-0.31,1.15-1.08c0-0.59-0.62-2.48-0.9-3.31c-0.08-0.25-0.03-0.52,0.14-0.71l3.97-4.68
						c0.16-0.18,0.21-0.43,0.15-0.66l-0.76-2.99c-0.04-0.16-0.03-0.32,0.04-0.48c0.53-1.25,2.43-6.62,2.43-6.62s0.38-1.08-0.46-2.15
						c-0.81-1.04-8.04-9.34-8.58-9.96c-0.02-0.02-0.04-0.05-0.06-0.07c-0.14-0.21-0.86-1.21-1.82-1.34
						c-0.84-0.12-2.37-0.01-3.01,0.05c-0.19,0.02-0.38-0.04-0.53-0.17l-18.86-15.49c-0.17-0.14-0.27-0.36-0.27-0.58l0.07-6.2
						c0-0.04,0-0.08-0.01-0.12c-0.04-0.25-0.25-1.12-1.22-1.77c-1.01-0.67-13.55-8.1-16.48-9.96c-0.35-0.22-0.45-0.69-0.22-1.03
						c0.87-1.3,2.68-4.51,2.09-7.99c-0.77-4.53-6.35-6.48-10.57-6.78c-3.14-0.23-4.94-0.06-5.66,0.04
						c-0.23,0.03-0.46-0.05-0.62-0.21c-0.85-0.86-3.89-3.54-9.47-4.38c-5.81-0.87-13.73-1.88-18.89-3.84
						c-0.66-0.25-1.26,0.48-0.89,1.08v0c0.35,0.58-0.19,1.29-0.84,1.1c-1.23-0.37-2.87-0.81-4.26-1.06
						c-2.61-0.46-4.36-0.7-11.12-0.7c-4.86,0-8.44-1.55-10.56-1.97c-0.58-0.11-1.25,0.36-1.13,1.55c0.19,1.86,0.06,5.31,4.74,7.14
						c0.67,0.26,0.38,0.72-0.43,0.92c-1.14,0.29-7.9-1.81-11.68-2.57c-7.99-1.61-12.37-1.84-27.9,1.84c-13.24,3.15-19.49,4.56-24,5
						c-0.7,0.07-0.92,1-0.31,1.37c2.04,1.25,5.46,3.19,8.92,4.39c0.65,0.23,0.66,1.14,0.02,1.39c-5.09,1.97-18.2,7.03-19.75,7.53
						c-1.81,0.58-15.21,5.14-28.54,4.35c-0.76-0.04-1.07,0.95-0.44,1.36c2.12,1.39,6.25,3.36,13.53,4.51c0.7,0.11,1.5,0.2,2.15,0.27
						c0.57,0.06,0.86,0.71,0.52,1.17c-1.31,1.78-4.62,5.67-11.35,10.39c-9.3,6.53-17.98,10.76-21.14,12.22
						c-2.1,0.97-6.28,2.7-8.84,3.74c-0.67,0.27-0.59,1.25,0.12,1.41c2.42,0.53,6.45,1.3,10.49,1.54c3.96,0.24,6.73,0.45,8.27,0.57
						c0.6,0.05,0.89,0.75,0.51,1.21c-1.97,2.37-6.77,8.06-10.53,11.76c-4.84,4.77-11.56,10.47-15.02,13.32
						C28.93,111.31,28.16,111.87,23.36,115.17z"/>
				</g>
			</g>
		</g>
	</g>
</g>
</svg>
